name p14_grf_mean_speed_1.2
datacolumns 13
datarows 46
range 0.0000000000 0.4500000000
endheader
time	grf_x_l_mean	grf_x_l_var	grf_y_l_mean	grf_y_l_var	grf_z_l_mean	grf_z_l_var	grf_x_r_mean	grf_x_r_var	grf_y_r_mean	grf_y_r_var	grf_z_r_mean	grf_z_r_var
0.0000000000	117.4751842211	1.0000000000	696.4629500941	1.0000000000	0.0000000000	0.0000000000	10.4547461253	1.0000000000	10.9849627602	1.0000000000	0.0000000000	0.0000000000
0.0100000000	128.0886976683	1.0000000000	689.6718236810	1.0000000000	0.0000000000	0.0000000000	13.7232571485	1.0000000000	43.4648835106	1.0000000000	0.0000000000	0.0000000000
0.0200000000	138.2090635411	1.0000000000	672.4663493642	1.0000000000	0.0000000000	0.0000000000	11.7668298382	1.0000000000	96.1400708615	1.0000000000	0.0000000000	0.0000000000
0.0300000000	146.7155801797	1.0000000000	643.0365645671	1.0000000000	0.0000000000	0.0000000000	-0.5929459493	1.0000000000	166.6814067881	1.0000000000	0.0000000000	0.0000000000
0.0400000000	151.7835065406	1.0000000000	600.1508782361	1.0000000000	0.0000000000	0.0000000000	-21.7886145741	1.0000000000	249.1053846560	1.0000000000	0.0000000000	0.0000000000
0.0500000000	152.7658979492	1.0000000000	543.8611260556	1.0000000000	0.0000000000	0.0000000000	-44.6679237963	1.0000000000	331.7872736555	1.0000000000	0.0000000000	0.0000000000
0.0600000000	147.6992846460	1.0000000000	474.6111340059	1.0000000000	0.0000000000	0.0000000000	-65.4918451676	1.0000000000	400.4781811545	1.0000000000	0.0000000000	0.0000000000
0.0700000000	134.1622207771	1.0000000000	394.7316968280	1.0000000000	0.0000000000	0.0000000000	-82.0592687886	1.0000000000	449.2623324343	1.0000000000	0.0000000000	0.0000000000
0.0800000000	113.7003195161	1.0000000000	310.2374291738	1.0000000000	0.0000000000	0.0000000000	-93.7949673120	1.0000000000	483.3648447706	1.0000000000	0.0000000000	0.0000000000
0.0900000000	88.2074612037	1.0000000000	228.5385008852	1.0000000000	0.0000000000	0.0000000000	-102.5581692668	1.0000000000	512.1243124295	1.0000000000	0.0000000000	0.0000000000
0.1000000000	61.3867060098	1.0000000000	155.5607112771	1.0000000000	0.0000000000	0.0000000000	-109.8885105852	1.0000000000	540.2779066802	1.0000000000	0.0000000000	0.0000000000
0.1100000000	37.3865219781	1.0000000000	96.0520436852	1.0000000000	0.0000000000	0.0000000000	-114.5512048353	1.0000000000	568.3479861509	1.0000000000	0.0000000000	0.0000000000
0.1200000000	18.7919468213	1.0000000000	52.7628563948	1.0000000000	0.0000000000	0.0000000000	-116.4138627839	1.0000000000	596.4724244043	1.0000000000	0.0000000000	0.0000000000
0.1300000000	6.4822642065	1.0000000000	24.4634928065	1.0000000000	0.0000000000	0.0000000000	-116.5104993900	1.0000000000	623.5116792871	1.0000000000	0.0000000000	0.0000000000
0.1400000000	0.4098291639	1.0000000000	7.8004157478	1.0000000000	0.0000000000	0.0000000000	-113.9918023714	1.0000000000	646.7866241977	1.0000000000	0.0000000000	0.0000000000
0.1500000000	0.0000000000	1.0000000000	0.0000000000	1.0000000000	0.0000000000	0.0000000000	-108.8526699109	1.0000000000	664.5805948521	1.0000000000	0.0000000000	0.0000000000
0.1600000000	0.0000000000	1.0000000000	0.0000000000	1.0000000000	0.0000000000	0.0000000000	-102.3837381821	1.0000000000	676.5798813998	1.0000000000	0.0000000000	0.0000000000
0.1700000000	0.0000000000	1.0000000000	0.0000000000	1.0000000000	0.0000000000	0.0000000000	-94.5150721271	1.0000000000	682.2575930263	1.0000000000	0.0000000000	0.0000000000
0.1800000000	0.0000000000	1.0000000000	0.0000000000	1.0000000000	0.0000000000	0.0000000000	-85.6990698538	1.0000000000	681.3772831166	1.0000000000	0.0000000000	0.0000000000
0.1900000000	0.0000000000	1.0000000000	0.0000000000	1.0000000000	0.0000000000	0.0000000000	-76.8129980188	1.0000000000	673.9032684487	1.0000000000	0.0000000000	0.0000000000
0.2000000000	1.2585392647	1.0000000000	0.1263484482	1.0000000000	0.0000000000	0.0000000000	-67.9456830578	1.0000000000	659.8839851179	1.0000000000	0.0000000000	0.0000000000
0.2100000000	1.4828027372	1.0000000000	0.5266169867	1.0000000000	0.0000000000	0.0000000000	-59.5164287855	1.0000000000	640.1127498824	1.0000000000	0.0000000000	0.0000000000
0.2200000000	1.3626839518	1.0000000000	0.5412057825	1.0000000000	0.0000000000	0.0000000000	-52.2725622813	1.0000000000	616.2997885211	1.0000000000	0.0000000000	0.0000000000
0.2300000000	1.2989048270	1.0000000000	0.4684275715	1.0000000000	0.0000000000	0.0000000000	-45.7400091842	1.0000000000	590.4542425247	1.0000000000	0.0000000000	0.0000000000
0.2400000000	1.1925446353	1.0000000000	0.3375640563	1.0000000000	0.0000000000	0.0000000000	-39.7260584937	1.0000000000	564.0900286434	1.0000000000	0.0000000000	0.0000000000
0.2500000000	1.0821367838	1.0000000000	0.2425619736	1.0000000000	0.0000000000	0.0000000000	-34.5366428739	1.0000000000	538.6403355920	1.0000000000	0.0000000000	0.0000000000
0.2600000000	1.5093188912	1.0000000000	0.3517848036	1.0000000000	0.0000000000	0.0000000000	-29.9565166981	1.0000000000	515.8173466326	1.0000000000	0.0000000000	0.0000000000
0.2700000000	1.8909321610	1.0000000000	0.4705809138	1.0000000000	0.0000000000	0.0000000000	-25.7325775093	1.0000000000	496.9464691684	1.0000000000	0.0000000000	0.0000000000
0.2800000000	1.6541463121	1.0000000000	0.4010327230	1.0000000000	0.0000000000	0.0000000000	-21.7370245207	1.0000000000	482.1607245857	1.0000000000	0.0000000000	0.0000000000
0.2900000000	1.3194381668	1.0000000000	0.2744425157	1.0000000000	0.0000000000	0.0000000000	-17.7615627418	1.0000000000	471.4249251788	1.0000000000	0.0000000000	0.0000000000
0.3000000000	1.0776576876	1.0000000000	0.1709029104	1.0000000000	0.0000000000	0.0000000000	-13.8185289008	1.0000000000	465.2273811577	1.0000000000	0.0000000000	0.0000000000
0.3100000000	0.7982447601	1.0000000000	0.0399014039	1.0000000000	0.0000000000	0.0000000000	-9.7638184161	1.0000000000	463.5659449400	1.0000000000	0.0000000000	0.0000000000
0.3200000000	0.0000000000	1.0000000000	0.0000000000	1.0000000000	0.0000000000	0.0000000000	-5.3091862827	1.0000000000	465.7335657703	1.0000000000	0.0000000000	0.0000000000
0.3300000000	0.0000000000	1.0000000000	0.0000000000	1.0000000000	0.0000000000	0.0000000000	-0.7083341991	1.0000000000	471.3396857956	1.0000000000	0.0000000000	0.0000000000
0.3400000000	0.0000000000	1.0000000000	0.0000000000	1.0000000000	0.0000000000	0.0000000000	3.9878050564	1.0000000000	480.3399245658	1.0000000000	0.0000000000	0.0000000000
0.3500000000	0.0000000000	1.0000000000	0.0000000000	1.0000000000	0.0000000000	0.0000000000	8.9726337341	1.0000000000	492.1825991935	1.0000000000	0.0000000000	0.0000000000
0.3600000000	0.0000000000	1.0000000000	0.0000000000	1.0000000000	0.0000000000	0.0000000000	13.9764773085	1.0000000000	506.0350048270	1.0000000000	0.0000000000	0.0000000000
0.3700000000	0.0000000000	1.0000000000	0.0000000000	1.0000000000	0.0000000000	0.0000000000	19.0879434495	1.0000000000	521.2808101123	1.0000000000	0.0000000000	0.0000000000
0.3800000000	0.3877669263	1.0000000000	0.0578905825	1.0000000000	0.0000000000	0.0000000000	24.7362716934	1.0000000000	537.6398561230	1.0000000000	0.0000000000	0.0000000000
0.3900000000	0.3980738267	1.0000000000	0.1620873510	1.0000000000	0.0000000000	0.0000000000	30.9112890510	1.0000000000	555.0851340878	1.0000000000	0.0000000000	0.0000000000
0.4000000000	0.2662523540	1.0000000000	0.2887240180	1.0000000000	0.0000000000	0.0000000000	37.8567104967	1.0000000000	573.4939541124	1.0000000000	0.0000000000	0.0000000000
0.4100000000	0.0674048987	1.0000000000	0.2800013330	1.0000000000	0.0000000000	0.0000000000	45.9100915970	1.0000000000	592.4432072116	1.0000000000	0.0000000000	0.0000000000
0.4200000000	0.0000000000	1.0000000000	0.0000000000	1.0000000000	0.0000000000	0.0000000000	54.7069221115	1.0000000000	611.7693289856	1.0000000000	0.0000000000	0.0000000000
0.4300000000	0.0000000000	1.0000000000	0.0000000000	1.0000000000	0.0000000000	0.0000000000	64.0056626248	1.0000000000	631.6254621652	1.0000000000	0.0000000000	0.0000000000
0.4400000000	0.0000000000	1.0000000000	0.0000000000	1.0000000000	0.0000000000	0.0000000000	73.9002414292	1.0000000000	651.5600200204	1.0000000000	0.0000000000	0.0000000000
0.4500000000	0.0000000000	1.0000000000	0.0000000000	1.0000000000	0.0000000000	0.0000000000	83.9084677648	1.0000000000	670.4528450697	1.0000000000	0.0000000000	0.0000000000
